<mxfile host="app.diagrams.net" agent="Mozilla/5.0 (Windows NT 10.0; Win64; x64) AppleWebKit/537.36 (KHTML, like Gecko) Chrome/138.0.0.0 Safari/537.36 Edg/138.0.0.0" version="27.1.5">
  <diagram name="第 1 页" id="_w6P09mcxxX63ngCEOF4">
    <mxGraphModel dx="1176" dy="655" grid="1" gridSize="10" guides="1" tooltips="1" connect="1" arrows="1" fold="1" page="1" pageScale="1" pageWidth="827" pageHeight="1169" math="0" shadow="0">
      <root>
        <mxCell id="0" />
        <mxCell id="1" parent="0" />
        <mxCell id="rk-6D3tjUBovJ2bj7uw0-8" style="edgeStyle=orthogonalEdgeStyle;rounded=0;orthogonalLoop=1;jettySize=auto;html=1;exitX=0.5;exitY=1;exitDx=0;exitDy=0;entryX=0.5;entryY=0;entryDx=0;entryDy=0;" edge="1" parent="1" source="rk-6D3tjUBovJ2bj7uw0-1" target="rk-6D3tjUBovJ2bj7uw0-7">
          <mxGeometry relative="1" as="geometry" />
        </mxCell>
        <mxCell id="rk-6D3tjUBovJ2bj7uw0-1" value="" style="rounded=0;whiteSpace=wrap;html=1;" vertex="1" parent="1">
          <mxGeometry x="240" y="360" width="120" height="250" as="geometry" />
        </mxCell>
        <mxCell id="rk-6D3tjUBovJ2bj7uw0-2" value="scheduled_fence" style="rounded=0;whiteSpace=wrap;html=1;" vertex="1" parent="1">
          <mxGeometry x="240" y="380" width="120" height="40" as="geometry" />
        </mxCell>
        <mxCell id="rk-6D3tjUBovJ2bj7uw0-11" style="edgeStyle=orthogonalEdgeStyle;rounded=0;orthogonalLoop=1;jettySize=auto;html=1;exitX=0;exitY=0.5;exitDx=0;exitDy=0;" edge="1" parent="1">
          <mxGeometry relative="1" as="geometry">
            <mxPoint x="240" y="557.49" as="sourcePoint" />
            <mxPoint x="170" y="552.5185714285715" as="targetPoint" />
            <Array as="points">
              <mxPoint x="215" y="558" />
              <mxPoint x="215" y="552" />
            </Array>
          </mxGeometry>
        </mxCell>
        <mxCell id="rk-6D3tjUBovJ2bj7uw0-3" value="finish_fence" style="rounded=0;whiteSpace=wrap;html=1;" vertex="1" parent="1">
          <mxGeometry x="240" y="530" width="120" height="50" as="geometry" />
        </mxCell>
        <mxCell id="rk-6D3tjUBovJ2bj7uw0-4" value="ib packet执行" style="rounded=0;whiteSpace=wrap;html=1;" vertex="1" parent="1">
          <mxGeometry x="240" y="450" width="120" height="60" as="geometry" />
        </mxCell>
        <mxCell id="rk-6D3tjUBovJ2bj7uw0-5" value="" style="endArrow=classic;html=1;rounded=0;entryX=0.5;entryY=0;entryDx=0;entryDy=0;" edge="1" parent="1" target="rk-6D3tjUBovJ2bj7uw0-1">
          <mxGeometry width="50" height="50" relative="1" as="geometry">
            <mxPoint x="300" y="320" as="sourcePoint" />
            <mxPoint x="490" y="490" as="targetPoint" />
          </mxGeometry>
        </mxCell>
        <mxCell id="rk-6D3tjUBovJ2bj7uw0-6" value="packet进入调度器" style="text;html=1;align=center;verticalAlign=middle;whiteSpace=wrap;rounded=0;" vertex="1" parent="1">
          <mxGeometry x="270" y="290" width="60" height="30" as="geometry" />
        </mxCell>
        <mxCell id="rk-6D3tjUBovJ2bj7uw0-7" value="packet执行完成" style="text;html=1;align=center;verticalAlign=middle;whiteSpace=wrap;rounded=0;" vertex="1" parent="1">
          <mxGeometry x="270" y="650" width="60" height="30" as="geometry" />
        </mxCell>
        <mxCell id="rk-6D3tjUBovJ2bj7uw0-9" value="driver" style="rounded=0;whiteSpace=wrap;html=1;" vertex="1" parent="1">
          <mxGeometry x="50" y="380" width="120" height="200" as="geometry" />
        </mxCell>
        <mxCell id="rk-6D3tjUBovJ2bj7uw0-10" style="edgeStyle=orthogonalEdgeStyle;rounded=0;orthogonalLoop=1;jettySize=auto;html=1;exitX=0;exitY=0.5;exitDx=0;exitDy=0;entryX=1.001;entryY=0.109;entryDx=0;entryDy=0;entryPerimeter=0;" edge="1" parent="1" source="rk-6D3tjUBovJ2bj7uw0-2" target="rk-6D3tjUBovJ2bj7uw0-9">
          <mxGeometry relative="1" as="geometry" />
        </mxCell>
        <mxCell id="rk-6D3tjUBovJ2bj7uw0-12" value="通知" style="text;html=1;align=center;verticalAlign=middle;whiteSpace=wrap;rounded=0;" vertex="1" parent="1">
          <mxGeometry x="170" y="370" width="60" height="30" as="geometry" />
        </mxCell>
        <mxCell id="rk-6D3tjUBovJ2bj7uw0-13" value="通知" style="text;html=1;align=center;verticalAlign=middle;whiteSpace=wrap;rounded=0;" vertex="1" parent="1">
          <mxGeometry x="180" y="520" width="60" height="30" as="geometry" />
        </mxCell>
      </root>
    </mxGraphModel>
  </diagram>
</mxfile>
